<?xml version="1.0" standalone="no"?>
<!DOCTYPE svg PUBLIC "-//W3C//DTD SVG 20010904//EN"
 "http://www.w3.org/TR/2001/REC-SVG-20010904/DTD/svg10.dtd">
<svg version="1.0" xmlns="http://www.w3.org/2000/svg"
 width="1000.000000pt" height="1000.000000pt" viewBox="0 0 1000.000000 1000.000000"
 preserveAspectRatio="xMidYMid meet">
<metadata>
Created by potrace 1.14, written by Peter Selinger 2001-2017
</metadata>
<g transform="translate(0.000000,1000.000000) scale(0.100000,-0.100000)"
fill="#000000" stroke="none">
<path d="M2 6979 l0 -1767 26 -3 c15 -2 693 -4 1507 -4 l1480 1 3 482 c2 382
0 482 -10 483 -7 0 -469 2 -1027 2 l-1014 2 -1 1285 -1 1285 -482 1 -481 1 0
-1768z"/>
<path d="M3037 8744 c-1 -1 -42 -4 -92 -8 -49 -3 -101 -8 -114 -11 -12 -2 -42
-6 -65 -9 -112 -14 -317 -68 -466 -123 -216 -81 -366 -170 -490 -293 -67 -67
-170 -190 -170 -204 0 -3 -13 -25 -29 -49 -67 -98 -129 -265 -167 -447 -4 -19
-9 -272 -11 -562 l-4 -527 484 2 484 2 -1 123 c-1 68 2 128 5 133 3 5 312 8
754 7 l749 -3 0 -357 -1 -358 484 0 483 0 -1 738 c-1 757 -4 831 -43 989 -58
236 -219 470 -417 610 -140 98 -437 225 -639 273 -25 6 -54 13 -65 15 -43 10
-182 35 -220 39 -22 3 -69 8 -105 12 -59 6 -337 13 -343 8z m353 -732 c47 -11
110 -30 140 -42 207 -82 351 -252 367 -436 l6 -64 -753 0 -752 0 5 58 c21 215
187 392 437 466 53 16 72 20 170 35 87 14 290 4 380 -17z"/>
<path d="M5239 8748 c-1 -2 -2 -797 -3 -1766 -1 -1158 2 -1766 9 -1770 5 -3
222 -6 482 -7 466 0 473 0 474 20 0 11 1 464 1 1008 0 543 2 987 4 987 2 0 63
-73 136 -162 73 -90 137 -168 143 -174 5 -6 24 -28 40 -50 17 -21 55 -68 85
-104 30 -37 71 -86 90 -110 19 -24 98 -120 174 -214 191 -234 384 -471 430
-528 l38 -48 292 0 292 0 254 316 c140 174 275 342 300 374 61 79 243 304 250
310 3 3 57 70 120 150 63 80 121 151 128 158 7 8 25 30 40 50 l27 35 5 -1008
5 -1009 460 -1 c253 0 466 1 473 3 9 3 12 366 12 1771 l0 1768 -475 -1 -475
-1 -98 -120 c-54 -66 -199 -244 -322 -395 -123 -151 -256 -314 -294 -361 -39
-47 -85 -103 -103 -125 -17 -21 -127 -156 -243 -299 -117 -143 -246 -302 -288
-353 -41 -51 -78 -89 -82 -85 -25 30 -209 256 -320 393 -74 91 -162 199 -196
240 -50 61 -129 157 -277 340 -150 185 -325 400 -339 415 -10 11 -63 76 -119
145 -55 69 -116 143 -135 166 l-34 41 -480 2 c-264 1 -481 1 -481 -1z"/>
<path d="M3383 4088 c2 -893 6 -1634 9 -1648 3 -14 9 -46 12 -70 3 -25 9 -56
12 -70 3 -14 8 -38 10 -55 21 -115 101 -305 180 -425 210 -317 542 -498 1029
-561 150 -20 476 -17 610 5 239 39 467 108 639 196 60 30 111 60 113 65 2 6
-7 21 -20 35 -87 94 -213 284 -290 435 -64 127 -138 323 -162 429 -5 23 -10
27 -28 22 -118 -34 -152 -39 -267 -40 -110 0 -132 3 -180 24 -65 28 -131 92
-161 158 -22 47 -22 52 -24 614 l-2 568 345 2 345 3 17 55 c41 127 131 319
206 436 119 187 312 403 472 528 39 31 72 58 72 59 0 1 -328 2 -728 2 l-728 0
1 415 c0 228 -1 421 -3 428 -3 9 -161 12 -743 12 l-740 0 4 -1622z"/>
<path d="M1108 4856 c-1 -2 -34 -6 -73 -10 -38 -4 -99 -14 -135 -22 -36 -9
-72 -17 -80 -19 -42 -10 -133 -46 -200 -80 -213 -107 -372 -265 -479 -475
-131 -260 -166 -527 -108 -830 38 -196 161 -425 308 -571 111 -110 303 -231
407 -255 15 -4 32 -10 37 -14 6 -4 28 -11 50 -15 22 -5 45 -9 50 -11 27 -7
116 -23 165 -30 30 -4 262 -7 515 -8 435 -2 462 -3 500 -21 65 -33 66 -97 3
-132 -31 -17 -92 -18 -1038 -20 -553 -1 -1011 -2 -1017 -2 -10 -1 -13 -116
-13 -541 l0 -541 1073 4 c589 2 1092 7 1117 11 279 46 503 155 676 330 221
223 336 521 328 851 -3 134 -7 165 -36 280 -93 371 -360 663 -718 787 -69 23
-153 45 -205 53 -23 3 -52 8 -65 11 -14 4 -209 8 -435 10 -605 5 -571 3 -608
28 -52 35 -50 98 5 131 32 19 59 19 953 21 506 1 923 2 928 3 4 1 7 243 7 540
l0 539 -954 0 c-525 0 -956 -1 -958 -2z"/>
<path d="M7457 4854 c-1 -1 -36 -5 -77 -8 -255 -23 -546 -122 -766 -261 -141
-90 -318 -250 -400 -360 -16 -22 -32 -42 -35 -45 -4 -3 -31 -44 -62 -91 -63
-98 -113 -194 -149 -289 -14 -36 -29 -74 -33 -85 -10 -25 -9 -20 -43 -155 -48
-184 -57 -270 -57 -510 1 -210 7 -276 42 -445 90 -435 345 -830 683 -1055 36
-24 77 -51 91 -61 38 -26 176 -93 244 -119 33 -12 69 -26 80 -31 41 -17 197
-58 250 -66 17 -2 36 -6 44 -9 52 -18 388 -26 481 -12 306 47 579 185 792 401
93 94 157 181 221 302 27 49 45 81 41 70 -3 -11 -24 -74 -44 -140 -21 -66 -54
-171 -74 -232 -81 -254 -106 -335 -106 -342 0 -4 320 -7 710 -7 l710 0 0 1743
c0 1653 -1 1743 -17 1744 -23 1 -1466 1 -1475 0 -4 -1 -9 -53 -10 -116 l-3
-115 -26 23 c-116 109 -343 210 -539 242 -19 3 -42 8 -50 10 -43 12 -411 29
-423 19z m648 -1143 c99 -27 159 -64 240 -145 119 -119 174 -266 180 -477 7
-255 -56 -441 -192 -572 -110 -104 -217 -147 -383 -152 -248 -7 -463 137 -549
368 -39 106 -50 183 -47 332 4 163 8 192 41 288 70 199 249 350 445 373 25 3
46 7 47 8 9 8 161 -8 218 -23z"/>
</g>
</svg>
